<svg xmlns="http://www.w3.org/2000/svg" viewBox="0 0 300 141" width="520" height="245"><filter id="b"><feGaussianBlur stdDeviation="10" /></filter><path fill="#e4eae1" d="M0 0h300v140H0z"/><g filter="url(#b)" transform="translate(.6 .6) scale(1.17188)" fill-opacity=".5"><path fill="#50a019" d="M63 63l23-45 119 80z"/><ellipse fill="#6bd325" cx="98" cy="49" rx="33" ry="20"/><ellipse fill="#412057" rx="1" ry="1" transform="matrix(-3.12264 10.43268 -16.25555 -4.8655 166.6 82.2)"/><path fill="#fcf5ff" d="M128 0h122v70H128z"/><path fill="#fffaff" d="M-9.5-12.9L-11 54.8l113-26.3 138-42.7z"/><ellipse fill="#fffaff" rx="1" ry="1" transform="matrix(-110.87346 -50.12175 12.1542 -26.88609 47.7 85.7)"/><path fill="#fdf9ff" d="M250-16l21 139-117 9z"/><path fill="#90819a" d="M187.3 66.4L155.4 47l-1.3 44-26.6-20.3z"/><path fill="#faf6fe" d="M215.3 135l-101.7-13.6 38.2-86.8-31 32.5z"/></g></svg>