<?xml version="1.0" encoding="iso-8859-1"?>
<!-- Generator: Adobe Illustrator 15.1.0, SVG Export Plug-In . SVG Version: 6.00 Build 0)  -->
<!DOCTYPE svg PUBLIC "-//W3C//DTD SVG 1.0//EN" "http://www.w3.org/TR/2001/REC-SVG-20010904/DTD/svg10.dtd" [
	<!ENTITY ns_flows "http://ns.adobe.com/Flows/1.0/">
	<!ENTITY ns_extend "http://ns.adobe.com/Extensibility/1.0/">
	<!ENTITY ns_ai "http://ns.adobe.com/AdobeIllustrator/10.0/">
	<!ENTITY ns_graphs "http://ns.adobe.com/Graphs/1.0/">
]>
<svg version="1.0" id="Layer_1" xmlns:x="&ns_extend;" xmlns:i="&ns_ai;" xmlns:graph="&ns_graphs;"
	 xmlns="http://www.w3.org/2000/svg" xmlns:xlink="http://www.w3.org/1999/xlink" xmlns:a="http://ns.adobe.com/AdobeSVGViewerExtensions/3.0/"
	 x="0px" y="0px" width="425.199px" height="91.186px" viewBox="0 -11.815 425.199 91.186"
	 style="enable-background:new 0 -11.815 425.199 91.186;" xml:space="preserve">
<g>
	<g>
		<path style="fill:#646567;" d="M16.646,43.785c-0.135,5.203,3.473,8.678,8.233,8.678c3.204,0,5.787-1.916,7.257-4.674l1.69,0.981
			c-1.869,3.558-5.159,5.562-9.211,5.562c-6.097,0-9.971-4.938-9.971-10.77c0-5.742,3.961-10.683,9.971-10.683
			c6.23,0,9.923,4.985,9.878,10.906H16.646L16.646,43.785z M32.489,41.917c-0.489-3.787-3.601-7.167-7.833-7.167
			c-4.18,0-7.653,3.294-8.01,7.167H32.489z"/>
		<path style="fill:#646567;" d="M55.401,50.193H55.31c-1.508,2.622-4.805,4.139-7.83,4.139c-6.23,0-10.144-4.851-10.144-10.857
			c0-6.01,3.871-10.594,10.055-10.594c3.157,0,6.186,1.425,7.918,4.007H55.4V17.171h2.001v36.713H55.4L55.401,50.193L55.401,50.193z
			 M55.534,43.251c0-4.764-3.248-8.501-8.233-8.501c-4.717,0-7.965,4.272-7.965,8.724c0,4.716,3.116,8.988,8.098,8.988
			C52.683,52.462,55.534,48.189,55.534,43.251z"/>
		<path style="fill:#646567;" d="M70.345,50.193l7.254-17.98l7.298,17.98l7.124-16.869h2.046l-9.3,21.671L77.514,37.24
			l-7.212,17.756l-9.253-21.671h2.046L70.345,50.193z"/>
		<path style="fill:#646567;" d="M115.77,53.885h-2.001v-3.691h-0.091c-1.512,2.622-4.806,4.14-7.831,4.14
			c-6.23,0-10.146-4.852-10.146-10.858c0-6.01,3.874-10.594,10.058-10.594c3.157,0,6.184,1.425,7.919,4.007h0.091v-3.561h2.001
			V53.885z M97.702,43.474c0,4.716,3.115,8.988,8.098,8.988c5.252,0,8.101-4.272,8.101-9.211c0-4.764-3.248-8.501-8.232-8.501
			C100.95,34.75,97.702,39.021,97.702,43.474z"/>
		<path style="fill:#646567;" d="M124.618,35.997h0.088c0.803-1.869,2.27-3.117,4.453-3.117c0.8,0,1.467,0.179,2.175,0.49
			l-1.064,1.781c-0.494-0.267-0.891-0.401-1.423-0.401c-4.497,0-4.229,5.606-4.229,8.636v10.499h-2.001V33.326h2.001V35.997
			L124.618,35.997z"/>
		<path style="fill:#646567;" d="M151.048,50.193h-0.088c-1.511,2.622-4.809,4.139-7.831,4.139c-6.231,0-10.149-4.851-10.149-10.857
			c0-6.01,3.874-10.594,10.059-10.594c3.16,0,6.187,1.425,7.921,4.007h0.088V17.171h2.001v36.713h-2.001L151.048,50.193
			L151.048,50.193z M151.183,43.251c0-4.764-3.25-8.501-8.235-8.501c-4.715,0-7.965,4.272-7.965,8.724
			c0,4.716,3.116,8.988,8.099,8.988C148.335,52.462,151.183,48.189,151.183,43.251z"/>
		<path style="fill:#646567;" d="M272.501,50.193h-0.091c-1.513,2.622-4.809,4.139-7.83,4.139c-6.231,0-10.146-4.851-10.146-10.857
			c0-6.01,3.871-10.594,10.055-10.594c3.16,0,6.188,1.425,7.923,4.007h0.091V17.171h2.002v36.713h-2.002L272.501,50.193
			L272.501,50.193z M272.634,43.251c0-4.764-3.251-8.501-8.236-8.501c-4.714,0-7.962,4.272-7.962,8.724
			c0,4.716,3.116,8.988,8.099,8.988C269.782,52.462,272.634,48.189,272.634,43.251z"/>
		<path style="fill:#646567;" d="M281.344,43.785c-0.135,5.203,3.475,8.678,8.236,8.678c3.203,0,5.783-1.916,7.253-4.674
			l1.689,0.981c-1.866,3.558-5.158,5.562-9.212,5.562c-6.096,0-9.97-4.938-9.97-10.77c0-5.742,3.962-10.683,9.97-10.683
			c6.233,0,9.924,4.985,9.879,10.906H281.344L281.344,43.785z M297.187,41.917c-0.491-3.787-3.601-7.167-7.83-7.167
			c-4.183,0-7.653,3.294-8.013,7.167H297.187z"/>
		<path style="fill:#646567;" d="M312.665,37.065c-0.667-1.426-2.002-2.316-3.602-2.316c-1.736,0-3.516,1.425-3.516,3.204
			c0,4.939,10.012,2.535,10.012,9.972c0,3.779-2.934,6.406-6.631,6.406c-3.427,0-6.229-2.093-7.072-5.432l1.955-0.623
			c0.758,2.451,2.404,4.186,5.117,4.186c2.582,0,4.629-2.051,4.629-4.627c0-2.539-1.955-3.338-4.006-4.051
			c-2.805-1.021-6.008-2.223-6.008-5.697c0-3.116,2.625-5.206,5.604-5.206c2.094,0,4.363,1.38,5.254,3.294L312.665,37.065z"/>
		<path style="fill:#646567;" d="M324.319,26.474c0,1.023-0.799,1.824-1.823,1.824c-1.023,0-1.826-0.801-1.826-1.824
			c0-0.979,0.803-1.826,1.826-1.826C323.521,24.65,324.319,25.495,324.319,26.474z M323.479,53.885h-2.004V33.326h2.004V53.885z"/>
		<path style="fill:#646567;" d="M349.509,52.908c0,3.158-0.088,6.008-2.051,8.721c-1.913,2.625-4.937,3.961-8.187,3.961
			c-5.382,0-9.838-3.156-10.145-8.812h2.002c0.224,4.273,3.824,6.942,7.966,6.942c2.58,0,5.07-0.888,6.587-3.068
			c1.604-2.358,1.827-5.03,1.827-7.789v-2.534h-0.091c-1.824,2.445-4.896,4.004-8.01,4.004c-5.965,0-9.971-5.031-9.971-10.77
			c0-5.921,4.229-10.683,10.237-10.683c3.337,0,5.829,1.425,7.742,4.007h0.091v-3.561h2.002L349.509,52.908L349.509,52.908
			L349.509,52.908z M331.441,43.474c0,4.716,3.116,8.988,8.1,8.988c5.251,0,8.1-4.272,8.1-9.211c0-4.764-3.248-8.501-8.231-8.501
			C334.689,34.75,331.441,39.021,331.441,43.474z"/>
		<path style="fill:#646567;" d="M358.354,36.53h0.086c1.201-2.271,3.428-3.65,6.1-3.65c5.294,0,6.763,3.294,6.763,8.59v12.415
			h-2.001V41.47c0-3.694-0.446-6.72-4.938-6.72c-5.16,0-6.008,4.807-6.008,8.989v10.146h-2.002V33.324h2.002L358.354,36.53
			L358.354,36.53z"/>
		<path style="fill:#646567;" d="M378.148,43.785c-0.135,5.203,3.475,8.678,8.235,8.678c3.201,0,5.785-1.916,7.254-4.674l1.69,0.981
			c-1.87,3.558-5.159,5.562-9.213,5.562c-6.096,0-9.97-4.938-9.97-10.77c0-5.742,3.963-10.683,9.97-10.683
			c6.231,0,9.924,4.985,9.88,10.906H378.148L378.148,43.785z M393.991,41.917c-0.49-3.787-3.603-7.167-7.83-7.167
			c-4.185,0-7.657,3.294-8.014,7.167H393.991z"/>
		<path style="fill:#646567;" d="M402.839,35.997h0.088c0.803-1.869,2.27-3.117,4.451-3.117c0.802,0,1.469,0.179,2.181,0.49
			l-1.066,1.781c-0.491-0.267-0.892-0.401-1.424-0.401c-4.493,0-4.229,5.606-4.229,8.636v10.499h-2.002V33.326h2.002L402.839,35.997
			L402.839,35.997z"/>
	</g>
	<circle style="fill:#89A0A1;adobe-blending-mode:multiply;enable-background:new    ;" cx="203.983" cy="39.988" r="37.446"/>
	<path style="fill:#446165;enable-background:new    ;" d="M203.983,2.542c0,0,0,16.764,0,37.446c0,20.68,0,37.446,0,37.446
		c-20.676,0-37.442-16.767-37.442-37.446C166.54,19.305,183.307,2.542,203.983,2.542z"/>
	<path style="fill:#003338;enable-background:new    ;" d="M203.983,2.542c0,0,0,16.764,0,37.446l0,0c-20.676,0-37.442,0-37.442,0
		C166.54,19.305,183.307,2.542,203.983,2.542z"/>
</g>
</svg>
