<svg xmlns="http://www.w3.org/2000/svg" viewBox="0 0 300 141" width="520" height="245"><filter id="b"><feGaussianBlur stdDeviation="10" /></filter><path fill="#eceeec" d="M0 0h300v140H0z"/><g filter="url(#b)" transform="translate(.6 .6) scale(1.17188)" fill-opacity=".5"><path fill="#92998b" d="M55 51h108v20H55z"/><path fill="#5dcf0e" d="M153.5 67.8l34.8 14.4-25.7-2.4-1.3-35.3z"/><path fill="#7cce45" d="M196.8 49l-28.3-10.7-3 8.6 19.9-9z"/><path fill="#28af00" d="M189 66h4v14h-4z"/><ellipse fill="#f8f6f8" rx="1" ry="1" transform="rotate(-179.2 52.3 6.3) scale(151.28111 30.10962)"/><path fill="#57c40b" d="M160 46l10-5-15 18z"/><ellipse fill="#f8f6f8" rx="1" ry="1" transform="matrix(-1.62001 24.54037 -183.54984 -12.1169 117.6 101.3)"/><ellipse fill="#66c823" rx="1" ry="1" transform="matrix(-3.2297 1.70557 -3.54806 -6.7187 161.8 70)"/><ellipse fill="#fff" cx="153" cy="51" rx="3" ry="26"/></g></svg>