<svg xmlns="http://www.w3.org/2000/svg" viewBox="0 0 300 141" width="520" height="245"><filter id="b"><feGaussianBlur stdDeviation="10" /></filter><path fill="#eee" d="M0 0h300v140H0z"/><g filter="url(#b)" transform="translate(.6 .6) scale(1.17188)" fill-opacity=".5"><path fill="#8a8a8a" d="M161.3 56L43.8 54.3l.5 12.3 125.5-.7z"/><path fill="#a2dc7d" d="M190.7 63.9l5.2 6.4-.1-2 13.9-27.4z"/><path fill="#646464" d="M49 64h95v2H49z"/><path fill="#676767" d="M57.2 57.2l-14.7-4.6L53 50.8l2.3 3.1z"/><path fill="#f3f3f3" d="M127.6 44.7l-12.4 33.6-6.2-44 28.8 40z"/><path fill="#898989" d="M104 51h22v4h-22z"/><path fill="#f6f6f6" d="M271 25L66.7 56.8l14.2 30.4L56-16z"/><ellipse fill="#f6f6f6" cx="125" cy="95" rx="255" ry="28"/><path fill="#676767" d="M151 64l13-10-16 1z"/></g></svg>